<?xml version="1.0" standalone="no"?>
<!DOCTYPE svg PUBLIC "-//W3C//DTD SVG 20010904//EN"
 "http://www.w3.org/TR/2001/REC-SVG-20010904/DTD/svg10.dtd">
<svg version="1.0" xmlns="http://www.w3.org/2000/svg"
 width="1600.000000pt" height="1600.000000pt" viewBox="0 0 1600.000000 1600.000000"
 preserveAspectRatio="xMidYMid meet">
<metadata>
Created by potrace 1.14, written by Peter Selinger 2001-2017
</metadata>
<g transform="translate(0.000000,1600.000000) scale(0.100000,-0.100000)"
fill="currentColor" stroke="none">
<path d="M3613 13975 c-161 -44 -290 -165 -342 -323 l-21 -62 3 -3613 c3
-3901 0 -3637 52 -3959 136 -845 478 -1603 1032 -2283 104 -127 417 -448 543
-557 718 -618 1585 -1009 2495 -1128 602 -78 1198 -45 1778 100 1569 392 2840
1569 3356 3107 164 492 241 972 241 1512 0 727 -156 1408 -469 2056 -737 1524
-2215 2537 -3906 2675 -156 13 -542 16 -686 5 -862 -63 -1621 -323 -2341 -803
-70 -46 -132 -90 -138 -97 -7 -9 -9 -642 -7 -2076 2 -1884 4 -2073 20 -2167
84 -513 259 -924 566 -1327 93 -123 333 -365 461 -467 615 -487 1390 -695
2163 -582 891 130 1676 696 2085 1502 320 630 390 1357 196 2042 -127 450
-377 874 -714 1210 -416 416 -938 684 -1530 784 -203 34 -249 38 -454 38 -188
0 -304 -10 -491 -41 -60 -11 -148 -24 -195 -30 -262 -34 -456 -254 -452 -516
1 -95 16 -156 60 -239 49 -94 130 -173 224 -219 117 -56 152 -60 250 -25 701
249 1487 57 1983 -485 354 -387 527 -904 475 -1418 -56 -549 -341 -1029 -795
-1338 -640 -437 -1508 -422 -2131 35 -238 175 -424 395 -559 665 -99 197 -164
425 -184 649 -7 75 -11 700 -11 1792 l0 1677 163 80 c408 200 779 310 1242
367 154 19 590 27 750 13 1130 -94 2136 -665 2792 -1585 337 -472 564 -1037
653 -1624 33 -221 43 -398 37 -654 -8 -314 -39 -546 -108 -821 -198 -785 -650
-1497 -1272 -2007 -737 -602 -1680 -905 -2645 -847 -1217 72 -2311 718 -2977
1759 -106 166 -277 509 -344 690 -128 348 -203 694 -230 1065 -5 66 -9 1682
-10 3591 -1 3038 -3 3477 -16 3527 -68 261 -337 420 -592 352z"/>
</g>
</svg>
